HIERARCHY
ROOT Hips
{
	OFFSET -80.168388 91.772041 -268.984589
	CHANNELS 6 Xposition Yposition Zposition Zrotation Yrotation Xrotation 
	JOINT LeftUpLeg
	{
		OFFSET 0.103457 1.857818 10.548502
		CHANNELS 3 Xrotation Yrotation Zrotation
		JOINT LeftLeg
		{
			OFFSET 43.500000 -0.000011 -0.000004
			CHANNELS 3 Xrotation Yrotation Zrotation
			JOINT LeftFoot
			{
				OFFSET 42.372192 -0.000004 -0.000008
				CHANNELS 3 Xrotation Yrotation Zrotation
				JOINT LeftToe
				{
					OFFSET 17.300014 0.000006 0.000001
					CHANNELS 3 Xrotation Yrotation Zrotation
					End Site
					{
						OFFSET 0.000000 0.000000 0.000000
					}
				}
			}
		}
	}
	JOINT RightUpLeg
	{
		OFFSET 0.103457 1.857817 -10.548505
		CHANNELS 3 Xrotation Yrotation Zrotation
		JOINT RightLeg
		{
			OFFSET 43.500046 -0.000004 0.000011
			CHANNELS 3 Xrotation Yrotation Zrotation
			JOINT RightFoot
			{
				OFFSET 42.372257 0.000000 0.000015
				CHANNELS 3 Xrotation Yrotation Zrotation
				JOINT RightToe
				{
					OFFSET 17.300003 -0.000000 0.000002
					CHANNELS 3 Xrotation Yrotation Zrotation
					End Site
					{
						OFFSET 0.000000 0.000000 0.000000
					}
				}
			}
		}
	}
	JOINT Spine
	{
		OFFSET 6.901961 -2.603721 -0.000001
		CHANNELS 3 Xrotation Yrotation Zrotation
		JOINT Spine1
		{
			OFFSET 12.588108 0.000002 -0.000001
			CHANNELS 3 Xrotation Yrotation Zrotation
			JOINT Spine2
			{
				OFFSET 12.343199 -0.000020 0.000006
				CHANNELS 3 Xrotation Yrotation Zrotation
				JOINT Neck
				{
					OFFSET 25.832905 0.000017 0.000000
					CHANNELS 3 Xrotation Yrotation Zrotation
					JOINT Head
					{
						OFFSET 11.766604 -0.000006 0.000004
						CHANNELS 3 Xrotation Yrotation Zrotation
						End Site
						{
							OFFSET 0.000000 0.000000 0.000000
						}
					}
				}
				JOINT LeftShoulder
				{
					OFFSET 19.745903 -1.480350 6.000100
					CHANNELS 3 Xrotation Yrotation Zrotation
					JOINT LeftArm
					{
						OFFSET 11.284130 -0.000016 -0.000016
						CHANNELS 3 Xrotation Yrotation Zrotation
						JOINT LeftForeArm
						{
							OFFSET 33.000046 0.000004 0.000031
							CHANNELS 3 Xrotation Yrotation Zrotation
							JOINT LeftHand
							{
								OFFSET 25.199999 0.000027 0.000001
								CHANNELS 3 Xrotation Yrotation Zrotation
								End Site
								{
									OFFSET 0.000000 0.000000 0.000000
								}
							}
						}
					}
				}
				JOINT RightShoulder
				{
					OFFSET 19.746094 -1.480375 -6.000080
					CHANNELS 3 Xrotation Yrotation Zrotation
					JOINT RightArm
					{
						OFFSET 11.284131 -0.000016 -0.000017
						CHANNELS 3 Xrotation Yrotation Zrotation
						JOINT RightForeArm
						{
							OFFSET 33.000095 0.000009 0.000020
							CHANNELS 3 Xrotation Yrotation Zrotation
							JOINT RightHand
							{
								OFFSET 25.199789 0.000132 0.000423
								CHANNELS 3 Xrotation Yrotation Zrotation
								End Site
								{
									OFFSET 0.000000 0.000000 0.000000
								}
							}
						}
					}
				}
			}
		}
	}
}
MOTION
Frames: 14
Frame Time: 0.033333
262.224915 79.256111 575.592529 86.187842 7.609652 -112.972900 149.978742 6.728801 168.512419 -62.122305 1.171195 -10.559758 105.333292 6.932150 0.121527 21.454555 0.003105 0.000016 168.693173 11.197299 -164.426737 -65.668635 -1.218616 18.758363 67.989889 -5.068394 24.388918 21.454551 -0.003092 -0.000002 9.278926 -0.308295 1.890984 8.532841 -0.755002 3.754125 8.215444 -0.732465 3.758600 7.238146 6.958510 7.853798 -24.279209 -19.654242 17.689678 -156.330080 -72.164603 -25.718319 11.199191 64.042900 32.371975 -60.703286 -15.788819 2.211321 -27.290559 -21.186998 34.608975 168.426290 76.571311 -10.305040 -13.454921 -63.519202 14.922534 -103.167986 1.933656 -3.024936 -5.658656 10.068209 -33.780709 
263.446106 77.434723 572.362427 86.492318 6.109214 -110.391601 154.062334 6.746699 167.843566 -63.525909 1.095693 -8.968078 111.091101 5.744756 1.026859 21.454562 0.003107 0.000017 163.803127 11.928498 -171.235315 -79.309466 -1.319425 13.254378 63.821445 -4.584165 12.768671 21.454560 -0.003093 0.000005 9.855861 -0.623081 1.110537 9.686899 -1.336843 2.165126 9.368951 -1.323888 2.173142 9.142337 5.764761 8.499289 -25.100163 -18.499829 17.806260 -159.784489 -71.645932 -22.176268 -1.602473 62.611893 21.424521 -62.787805 -15.612989 2.279355 -28.096226 -23.177946 35.123008 169.634810 75.642965 -9.103048 -10.530255 -63.796637 12.725521 -97.223310 3.236558 -2.852498 4.400912 2.153651 -47.872062 
264.689392 76.421120 568.642029 86.637248 5.100841 -107.233301 158.202071 7.380495 169.362996 -63.756701 0.874562 -7.887052 113.566006 4.953326 1.563573 21.454562 0.003103 0.000015 158.184886 10.971999 -175.762323 -90.268825 -2.012371 9.829634 68.879801 -3.461399 10.189288 21.454551 -0.003088 -0.000003 10.357202 -0.847792 0.331072 10.698399 -1.722490 0.582360 10.380161 -1.719071 0.592744 9.827941 5.129266 8.876915 -25.271768 -17.513513 17.706499 -164.090090 -71.385674 -17.749013 -14.871321 59.118504 10.310093 -64.879407 -15.308419 2.340540 -29.174497 -23.719666 36.850988 172.334429 74.847692 -6.369986 -4.371737 -64.304940 6.353723 -92.852692 4.501109 -2.746543 14.777697 -0.508866 -70.282626 
265.915985 76.258713 564.499695 86.701971 5.307562 -104.183280 162.575264 7.763202 172.033190 -61.295545 0.374390 -7.021497 115.005701 4.350748 1.777219 21.454557 0.003106 0.000019 150.933712 9.189193 -178.038825 -97.193298 -2.664789 9.688505 69.383589 -4.345735 7.385784 21.454562 -0.003098 0.000006 10.578161 -0.929679 -0.292044 11.150275 -1.826769 -0.672445 10.832023 -1.830940 -0.661408 9.703459 5.622123 9.029080 -25.247866 -16.987621 17.675105 -168.731340 -71.725531 -12.971124 -24.741191 55.199403 1.684906 -68.359778 -14.434751 2.420336 -30.455294 -22.594216 39.508877 177.732136 74.116719 -0.863013 6.516232 -63.992227 -6.596452 -90.568657 6.036642 -2.752578 20.788900 1.204775 -92.967125 
267.119598 77.172867 559.881226 87.195083 6.747516 -101.713203 167.364305 6.963800 174.684342 -55.707248 -0.362659 -6.023456 114.392206 3.731555 2.044225 21.454555 0.003108 0.000017 143.257986 6.812995 -178.112031 -99.141494 -2.909361 11.571839 69.854387 -5.561541 7.966483 21.454551 -0.003094 0.000001 10.494384 -0.774707 -0.857405 10.988244 -1.464377 -1.784667 10.670207 -1.475260 -1.775806 9.232629 6.814726 9.420329 -25.278262 -17.034024 18.246514 -171.939275 -72.770789 -9.675183 -30.552502 53.068408 -4.909889 -74.160814 -12.627217 2.536484 -31.472569 -20.591929 42.105801 -175.447397 73.537136 6.120001 19.269468 -61.928430 -21.007753 -90.041393 6.477874 -2.760104 21.613019 1.718593 -106.629389 
268.283203 78.847878 554.828491 88.190467 8.920528 -99.825592 172.367214 5.099898 176.872147 -47.781575 -1.259346 -4.952265 110.359806 3.184311 2.008589 21.454558 0.003108 0.000017 135.811823 4.286106 -177.224039 -96.622288 -2.529502 11.023813 71.883274 -5.441197 7.625928 21.454555 -0.003086 -0.000004 10.231666 -0.379424 -1.545638 10.459098 -0.617450 -3.119248 10.141490 -0.636423 -3.115474 8.462838 8.054389 10.422258 -25.257910 -17.672807 19.744036 -172.132037 -74.316754 -9.484598 -32.763895 53.428578 -10.128596 -81.551284 -9.536232 2.639668 -31.643986 -19.312396 42.969331 -169.531374 73.465843 12.188969 29.738736 -58.355736 -31.783934 -90.514637 6.009397 -2.748274 20.261471 -0.386544 -107.750401 
269.373291 81.101128 549.362488 89.779326 11.393930 -98.350319 176.905342 2.481400 177.986479 -39.497287 -2.152678 -4.323222 101.242801 3.102130 3.148159 21.454558 0.003099 0.000016 130.094299 1.685194 -176.557002 -89.323664 -0.752216 8.375803 74.129792 -4.267935 5.837600 21.454557 -0.003094 0.000001 9.952827 0.239923 -2.263956 9.879815 0.672361 -4.499137 9.562762 0.645048 -4.503109 7.171380 9.346255 11.811601 -24.927732 -18.856370 21.874869 -169.640029 -75.802560 -12.039183 -32.363096 55.296904 -13.581995 -88.368926 -5.561254 2.662971 -31.286593 -19.975590 41.272859 -166.057977 73.974384 15.750981 36.686541 -54.597274 -37.784180 -91.114963 5.223643 -2.719908 19.403640 -3.350868 -98.557990 
270.390411 83.370071 543.620422 91.831757 13.736409 -97.397487 -179.319923 -0.556103 177.207127 -32.492347 -2.752535 -3.640155 89.192121 3.378637 4.938323 21.454558 0.003102 0.000019 126.539377 -1.324908 -176.433062 -78.305585 1.550655 5.298344 75.200123 -2.117028 6.066092 21.454555 -0.003095 0.000001 9.793728 0.962943 -2.727582 9.525953 2.147147 -5.367413 9.209149 2.114602 -5.380239 5.187390 11.160163 13.037390 -24.051464 -20.444776 24.020423 -166.548576 -76.647843 -15.195685 -30.913597 56.983192 -13.981985 -92.508519 -2.843741 2.657810 -31.504128 -22.059240 38.848050 -165.245963 74.411947 16.581054 40.868720 -51.693522 -40.268504 -91.328727 4.792433 -2.699213 19.625010 -6.573799 -87.173984 
271.253601 85.049919 537.637573 93.445334 15.356786 -97.280704 -176.376221 -2.831104 175.619969 -28.911381 -2.555967 -2.588768 78.714344 2.498205 2.237560 21.454551 0.003114 0.000018 125.344982 -4.437502 -176.542167 -65.330261 2.814242 3.644401 76.777043 -1.069738 5.964697 21.454548 -0.003087 0.000002 9.811782 1.515150 -2.854929 9.535086 3.260334 -5.577331 9.218092 3.226505 -5.596856 2.980493 13.428722 13.841330 -22.857552 -22.148058 25.815291 -164.913347 -76.710674 -16.864922 -29.304315 57.666611 -11.236902 -93.066129 -2.693797 2.672290 -32.381097 -23.806156 38.428765 -166.063414 74.144729 15.745003 42.546631 -50.157535 -39.628775 -91.267904 4.601816 -2.683186 20.821226 -10.144167 -80.108666 
271.917511 86.195717 531.415100 94.259664 15.884356 -97.746304 -174.556194 -3.025409 176.316265 -29.950431 -1.250277 -2.665441 72.770242 1.931665 -0.183879 21.454555 0.003120 0.000018 127.068744 -7.147201 -176.399252 -52.649957 2.813007 5.411088 78.788691 -2.125081 7.168205 21.454551 -0.003093 0.000001 9.992659 1.805005 -2.812823 9.886193 3.843681 -5.463909 9.568912 3.810535 -5.486960 1.844317 15.132931 14.374200 -22.238947 -23.501412 27.163360 -164.974969 -76.271056 -16.804880 -27.260096 57.792990 -7.085398 -90.428235 -3.822353 2.633217 -31.502233 -24.088949 39.253616 -167.063613 73.435168 14.722032 41.381469 -50.343600 -36.477015 -91.383396 4.509140 -2.681823 22.528906 -12.913486 -77.959096 
272.472198 86.171738 524.899780 94.005280 15.066144 -98.340804 -174.369989 -1.387796 179.823240 -36.905606 -0.169576 -2.734429 69.194570 1.812923 -0.644086 21.454562 0.003115 0.000017 130.838981 -8.563098 -175.706876 -43.713002 2.008966 7.484473 78.091643 -3.344469 8.002275 21.454555 -0.003105 -0.000002 10.233901 1.816620 -2.763824 10.370139 3.873669 -5.356413 10.052773 3.841149 -5.379647 2.622999 15.290961 14.682499 -22.765591 -24.096060 27.811004 -165.591967 -75.712476 -16.177921 -24.527903 57.927599 -0.819607 -85.716381 -6.570375 2.615764 -25.418638 -22.396346 37.755421 -167.103037 73.009729 14.682972 38.503552 -51.591981 -32.784013 -92.017313 4.445982 -2.705549 23.146493 -13.512378 -78.409581 
273.065613 84.957413 518.387817 93.789733 13.394039 -98.977111 -175.849709 -0.057609 -177.576531 -49.102585 -0.247763 -2.070419 71.282600 1.536128 0.007283 21.454555 0.003113 0.000018 135.041186 -9.265600 -174.213305 -41.648332 2.001351 7.932934 75.330143 -5.688139 0.138278 21.454555 -0.003108 -0.000002 10.464989 1.768263 -2.504608 10.843404 3.763501 -4.834708 10.525805 3.734133 -4.857311 4.603023 14.069659 14.486645 -23.971681 -23.942388 27.480517 -166.605772 -75.279265 -15.143124 -21.517688 58.454596 5.778511 -79.942508 -9.545634 2.570085 -14.107761 -17.503055 33.068050 -165.841938 72.984253 15.978020 34.597463 -53.185577 -29.205653 -92.884473 4.388426 -2.740074 21.355818 -11.815911 -79.271578 
273.881500 83.373528 512.168884 95.159691 11.775180 -99.829191 -178.951516 -0.853110 -178.421699 -63.776202 0.390551 -2.597707 72.066829 1.699611 -0.469909 21.454567 0.003108 0.000022 138.139592 -10.302101 -172.224586 -48.192626 2.344416 7.225106 84.308836 -5.882615 -4.006026 21.454550 -0.003090 0.000001 10.686397 1.979946 -1.829292 11.304778 4.129151 -3.458202 10.986418 4.108078 -3.483091 6.435726 12.399251 13.859921 -25.101915 -23.496619 26.548872 -168.646304 -74.820228 -13.055779 -18.902082 59.354310 11.496323 -72.804503 -12.476029 2.468692 -3.041700 -11.317378 28.985885 -165.004571 72.904695 16.838003 27.859280 -54.594235 -23.975969 -93.128974 4.464888 -2.756290 18.045157 -8.243250 -81.665143 
274.796997 81.927467 505.812500 96.737472 10.359163 -101.115507 176.691748 -2.540205 178.696709 -78.056556 2.343380 -5.873114 71.145347 3.068696 -3.226566 21.454560 0.003110 0.000016 141.629641 -10.971503 -170.468968 -54.021438 2.467696 5.681750 90.023690 -4.539595 -3.834183 21.454557 -0.003100 0.000002 10.906181 2.252609 -1.055224 11.771198 4.600841 -1.876850 11.452170 4.589289 -1.904646 7.332352 10.816971 13.349309 -25.817724 -23.195551 25.812639 -170.652222 -73.909873 -10.999888 -16.697308 60.396802 15.974894 -63.304399 -14.988925 2.256676 2.555756 -8.887095 28.153142 -167.416993 72.876889 14.360956 16.738415 -55.223507 -15.797340 -92.557697 4.741649 -2.750261 15.855268 -4.009800 -88.536996 
